<?xml version="1.0" encoding="UTF-8"?>
<svg id="Layer_1" data-name="Layer 1" xmlns="http://www.w3.org/2000/svg" width="12in" height="9in" xmlns:xlink="http://www.w3.org/1999/xlink" viewBox="0 0 864 648">
  <defs>
    <style>
      .cls-1 {
        fill: none;
      }

      .cls-1, .cls-2 {
        isolation: isolate;
      }

      .cls-2 {
        fill: #f0f;
        opacity: .5;
      }
    </style>
  </defs>
  <g id="art">
    <image id="alz_p2021" class="cls-1" width="1800" height="1350" transform="scale(.48)" xlink:href="../JPGs/alz_p2021.jpg"/>
  </g>
  <g id="labels">
    <rect id="alz_p2021_txt_w01_scene" class="cls-2" x="110" y="19.64" width="166" height="48.64"/>
    <rect id="alz_p2021_txt_w02_3" class="cls-2" x="276" y="19.64" width="48.96" height="48.64"/>
    <rect id="alz_p2021_txt_w03_suddenly" class="cls-2" x="41" y="78" width="128.04" height="38.91"/>
    <rect id="alz_p2021_txt_w04_fly" class="cls-2" x="169.04" y="78" width="48.96" height="38.91"/>
    <rect id="alz_p2021_txt_w05_girl" class="cls-2" x="218" y="78" width="58" height="38.91"/>
    <rect id="alz_p2021_txt_w06_arrived" class="cls-2" x="276" y="78" width="113.39" height="38.91"/>
    <rect id="alz_p2021_txt_w07_the" class="cls-2" x="463" y="29.36" width="64.98" height="38.91"/>
    <rect id="alz_p2021_txt_w08_aliens" class="cls-2" x="527" y="29.36" width="78" height="38.91"/>
    <rect id="alz_p2021_txt_w09_were" class="cls-2" x="605" y="29.36" width="61.69" height="38.91"/>
    <rect id="alz_p2021_txt_w10_busy" class="cls-2" x="665" y="29.36" width="61.95" height="38.91"/>
    <rect id="alz_p2021_txt_w11_with" class="cls-2" x="726.95" y="29.36" width="61.96" height="38.91"/>
    <rect id="alz_p2021_txt_w12_dragon" class="cls-2" x="463" y="68.27" width="89.46" height="38.91"/>
    <rect id="alz_p2021_txt_w13_dude" class="cls-2" x="552.48" y="68.27" width="73.69" height="38.91"/>
    <rect id="alz_p2021_txt_w14_they" class="cls-2" x="627" y="68.27" width="66" height="38.91"/>
    <rect id="alz_p2021_txt_w15_didnt" class="cls-2" x="693" y="68.27" width="71.43" height="38.91"/>
    <rect id="alz_p2021_txt_w16_see" class="cls-2" x="764.43" y="68.27" width="48.96" height="38.91"/>
    <rect id="alz_p2021_txt_w17_her" class="cls-2" x="463" y="107.18" width="48.96" height="38.91"/>
    <rect id="alz_p2021_txt_w18_rescue" class="cls-2" x="512" y="107.18" width="80.96" height="38.91"/>
    <rect id="alz_p2021_txt_w19_fly" class="cls-2" x="593" y="107.18" width="41.91" height="38.91"/>
    <rect id="alz_p2021_txt_w20_guy" class="cls-2" x="634" y="107.18" width="59" height="38.91"/>
    <rect id="alz_p2021_txt_w21_from" class="cls-2" x="693" y="107.18" width="58.43" height="38.91"/>
    <rect id="alz_p2021_txt_w22_the" class="cls-2" x="751.43" y="107.18" width="48.96" height="38.91"/>
    <rect id="alz_p2021_txt_w23_secret" class="cls-2" x="463" y="146.09" width="81" height="38.91"/>
    <rect id="alz_p2021_txt_w24_hero" class="cls-2" x="544" y="146.09" width="66.43" height="38.91"/>
    <rect id="alz_p2021_txt_w25_fort" class="cls-2" x="610.43" y="146.09" width="63.57" height="38.91"/>
    <polygon id="alz_p2021_obj_fly_girl1" class="cls-2" points="198 230 134 265 83 324 60 361 95 444 157 479 287 439 356 380 342 277 247 230 198 230"/>
    <polygon id="alz_p2021_obj_fly_guy" class="cls-2" points="593 354.5 507.73 398 512 508 577.21 554 674 530 660 435 627 367 593 354.5"/>
    <polygon id="alz_p2021_obj_fly_girl2" class="cls-2" points="728.71 347 679 375 674 454.25 703.86 519 771 540 826 479 800.39 416 757.93 361 728.71 347"/>
    <rect id="alz_p2021_obj_page21" class="cls-2" x="634" y="588" width="32.69" height="32.69"/>
  </g>
</svg>