<?xml version="1.0" encoding="UTF-8"?>
<svg id="Layer_1" data-name="Layer 1" xmlns="http://www.w3.org/2000/svg" width="12in" height="9in" xmlns:xlink="http://www.w3.org/1999/xlink" viewBox="0 0 864 648">
  <defs>
    <style>
      .cls-1 {
        fill: none;
      }

      .cls-1, .cls-2 {
        isolation: isolate;
      }

      .cls-2 {
        fill: #f0f;
        opacity: .5;
      }
    </style>
  </defs>
  <g id="art">
    <image id="alz_p1617" class="cls-1" width="1800" height="1350" transform="scale(.48)" xlink:href="../JPGs/alz_p1617.jpg"/>
  </g>
  <g id="labels">
    <rect id="alz_p1617_txt_w01_their" class="cls-2" x="41.57" y="33.17" width="77.66" height="35.96"/>
    <rect id="alz_p1617_txt_w02_pal" class="cls-2" x="119.83" y="33.17" width="54.26" height="35.96"/>
    <rect id="alz_p1617_txt_w03_dragon" class="cls-2" x="174.09" y="33.17" width="102" height="35.96"/>
    <rect id="alz_p1617_txt_w04_dude" class="cls-2" x="276.08" y="33.17" width="74.87" height="35.96"/>
    <rect id="alz_p1617_txt_w05_came" class="cls-2" x="34.78" y="74.05" width="70.96" height="34.78"/>
    <rect id="alz_p1617_txt_w06_out" class="cls-2" x="105.74" y="74.05" width="52.04" height="34.78"/>
    <rect id="alz_p1617_txt_w07_and" class="cls-2" x="157.78" y="74.05" width="52.31" height="34.78"/>
    <rect id="alz_p1617_txt_w08_shot" class="cls-2" x="210.09" y="74.05" width="62.09" height="34.78"/>
    <rect id="alz_p1617_txt_w09_fireballs" class="cls-2" x="272.17" y="74.05" width="110.61" height="34.78"/>
    <rect id="alz_p1617_txt_w10_at" class="cls-2" x="34.26" y="115.26" width="31.39" height="36.34"/>
    <rect id="alz_p1617_txt_w11_the" class="cls-2" x="65.65" y="115.26" width="48.96" height="36.34"/>
    <rect id="alz_p1617_txt_w12_spaceship" class="cls-2" x="114.61" y="115.26" width="135.3" height="36.34"/>
    <rect id="alz_p1617_txt_w13_the" class="cls-2" x="470.43" y="191.18" width="58.43" height="38.91"/>
    <rect id="alz_p1617_txt_w14_solidgold" class="cls-2" x="528.87" y="191.18" width="123.13" height="38.91"/>
    <rect id="alz_p1617_txt_w15_spaceship" class="cls-2" x="652" y="191.18" width="124.39" height="38.91"/>
    <rect id="alz_p1617_txt_w16_was" class="cls-2" x="777.04" y="191.18" width="55.48" height="38.91"/>
    <rect id="alz_p1617_txt_w17_fireproof" class="cls-2" x="466.78" y="230.09" width="111.22" height="38.91"/>
    <rect id="alz_p1617_txt_w18_but" class="cls-2" x="578" y="230.09" width="54" height="38.91"/>
    <rect id="alz_p1617_txt_w19_the" class="cls-2" x="632" y="230.09" width="46.98" height="38.91"/>
    <rect id="alz_p1617_txt_w20_fireballs" class="cls-2" x="678.47" y="230.09" width="110.53" height="38.91"/>
    <rect id="alz_p1617_txt_w21_made" class="cls-2" x="462" y="275.18" width="73.43" height="38.91"/>
    <rect id="alz_p1617_txt_w22_the" class="cls-2" x="535.43" y="275.18" width="48.96" height="38.91"/>
    <rect id="alz_p1617_txt_w23_aliens" class="cls-2" x="584.35" y="275.18" width="78.61" height="38.91"/>
    <rect id="alz_p1617_txt_w24_mad" class="cls-2" x="662.96" y="275.18" width="64.47" height="38.91"/>
    <rect id="alz_p1617_txt_w25_they" class="cls-2" x="727.43" y="275.18" width="68.29" height="38.91"/>
    <rect id="alz_p1617_txt_w26_crushed" class="cls-2" x="462" y="314.09" width="104" height="38.91"/>
    <rect id="alz_p1617_txt_w27_the" class="cls-2" x="566" y="314.09" width="45" height="38.91"/>
    <rect id="alz_p1617_txt_w28_secret" class="cls-2" x="611" y="314.09" width="87" height="38.91"/>
    <rect id="alz_p1617_txt_w29_hero" class="cls-2" x="698" y="314.09" width="67.43" height="38.91"/>
    <rect id="alz_p1617_txt_w30_fort" class="cls-2" x="765.43" y="314.09" width="60.57" height="38.91"/>
    <polygon id="alz_p1617_obj_spaceship1" class="cls-2" points="341.04 133.44 300.35 151.61 285.22 180.3 285.22 210.64 313.13 218.39 386.96 203.78 406.78 169.87 382.78 137 341.04 133.44"/>
    <path id="alz_p1617_obj_dd_head" class="cls-2" d="m164.7,275.18c-1.57,1.65-74.57,16.78-74.57,16.78l-43.87,51.65,19.39,59.48,48.44,35.48,48.52-10.43,46.96-66.26-4.17-67.23-40.7-19.45Z"/>
    <polygon id="alz_p1617_obj_dd_body" class="cls-2" points="79.13 442.74 49.95 480.3 42.61 561.7 129.22 584.65 197.57 562.22 199.13 517.35 160.52 440.65 79.13 442.74"/>
    <path id="alz_p1617_obj_dd_wing" class="cls-2" d="m166.78,440.65c2.61,2.61,25.57,53.22,25.57,53.22l36.52,4.17,44.35-28.7,21.91-45.39-20.87-42.78-57.39,22.43-50.09,37.04Z"/>
    <path id="alz_p1617_obj_spaceship2" class="cls-2" d="m614.43,51.15s-13.57,19.07-13.57,20.63,17.22,37.04,17.22,37.04l95.48,18.26,18.15-41.74-4.29-36.52-56.65-17.74-56.35,20.07Z"/>
    <path id="alz_p1617_obj_fireball2" class="cls-2" d="m590.43,42.04c-1.04,0-68.04-13.57-68.04-13.57l-17.52,22.67,30.56,22.89,15.35,17.39,45.91-4.52-6.26-44.87Z"/>
    <polygon id="alz_p1617_obj_fireball2-2" data-name="alz_p1617_obj_fireball2" class="cls-2" points="674.43 122.39 649.91 135.96 698 188.65 741.22 188.65 722.96 137.52 690.43 122.66 674.43 122.39"/>
    <path id="alz_p1617_obj_mad_aliens" class="cls-2" d="m678.98,360.83l-94.59,4.17s.09,56.35,4.11,58.96,46.8,1.04,46.8,1.04l8.65-1.17,37.79-5.09,16.26-29.74-19.02-28.17Z"/>
    <polygon id="alz_p1617_obj_spaceship3a" class="cls-2" points="643.65 491.26 578 507.43 522.39 502.74 514 461.52 522.39 421.87 568.52 414.04 600.87 425.47 643.95 423.83 643.65 491.26"/>
    <path id="alz_p1617_obj_spaceship3b" class="cls-2" d="m646.78,425.47l3.13,64.75,54.26,22.43h63.65s11.12-56.35,9.21-62.61-22.26-56.9-22.26-56.9l-63.65,18.29-21.39,14.03h-22.96Z"/>
    <path id="alz_p1617_obj_sign" class="cls-2" d="m649.91,517.87c-6.78.52-80.87,2.09-80.87,2.09,0,0-62.09,18.78-60.52,20.35s32.87,29.22,32.87,29.22l60.52-17.22,77.22-4.7-29.22-29.74Z"/>
    <polygon id="alz_p1617_obj_crash" class="cls-2" points="685.91 507.43 676 522.57 774.09 576.83 804.78 543.7 719.83 512.65 685.91 507.43"/>
    <path id="alz_p1617_obj_fireball1" class="cls-2" d="m251.3,230.09c-1.57,2.91-33.39,33.69-33.39,33.69l-8.35,32.87,5.74,37.57,42.26-30.78,37.57-40.17,4.7-30.78-22.96-9.39-25.57,7Z"/>
    <rect id="alz_p1617_obj_page16" class="cls-2" x="203.3" y="592.65" width="26.09" height="22.96"/>
    <rect id="alz_p1617_obj_page17" class="cls-2" x="634" y="588" width="32.69" height="32.69"/>
	</g>
</svg>