<?xml version="1.0" encoding="UTF-8"?>
<svg id="Layer_1" data-name="Layer 1" xmlns="http://www.w3.org/2000/svg" width="12in" height="9in" xmlns:xlink="http://www.w3.org/1999/xlink" viewBox="0 0 864 648">
  <defs>
    <style>
      .cls-1 {
        fill: none;
      }

      .cls-1, .cls-2 {
        isolation: isolate;
      }

      .cls-2 {
        fill: #f0f;
        opacity: .5;
      }
    </style>
  </defs>
  <g id="art">
    <image id="alz_p2829" class="cls-1" width="1800" height="1350" transform="scale(.48)" xlink:href="../JPGs/alz_p2829.jpg"/>
  </g>
  <g id="labels">
    <rect id="alz_p2829_txt_w01_the" class="cls-2" x="38.26" y="25.36" width="58.43" height="38.91"/>
    <rect id="alz_p2829_txt_w02_end" class="cls-2" x="96.7" y="25.36" width="63.44" height="38.91"/>
    <rect id="alz_p2829_txt_w03_said" class="cls-2" x="158.61" y="25.36" width="57.78" height="38.91"/>
    <rect id="alz_p2829_txt_w04_buzz" class="cls-2" x="216.39" y="25.36" width="70.92" height="38.91"/>
    <rect id="alz_p2829_txt_w05_buzz" class="cls-2" x="148.8" y="74.57" width="110.24" height="48.07"/>
    <rect id="alz_p2829_txt_w06_boy" class="cls-2" x="256.7" y="74.57" width="96.83" height="48.07"/>
    <rect id="alz_p2829_txt_w07_oops" class="cls-2" x="32" y="447.17" width="91" height="38.91"/>
    <rect id="alz_p2829_txt_w08_said" class="cls-2" x="123" y="447.17" width="51.61" height="38.91"/>
    <rect id="alz_p2829_txt_w09_buzz" class="cls-2" x="174.61" y="447.17" width="70.96" height="38.91"/>
    <rect id="alz_p2829_txt_w10_buzz" class="cls-2" x="245.57" y="447.17" width="70.26" height="38.91"/>
    <rect id="alz_p2829_txt_w11_boy" class="cls-2" x="315.83" y="447.17" width="53.87" height="38.91"/>
    <rect id="alz_p2829_txt_w12_is" class="cls-2" x="369.69" y="447.17" width="24.48" height="38.91"/>
    <rect id="alz_p2829_txt_w13_still" class="cls-2" x="33.43" y="486.08" width="48.96" height="38.91"/>
    <rect id="alz_p2829_txt_w14_tied" class="cls-2" x="82.39" y="486.08" width="53.26" height="38.91"/>
    <rect id="alz_p2829_txt_w15_up" class="cls-2" x="135.65" y="486.08" width="36.31" height="38.91"/>
    <rect id="alz_p2829_txt_w16_on" class="cls-2" x="171.96" y="486.08" width="34.65" height="38.91"/>
    <rect id="alz_p2829_txt_w17_the" class="cls-2" x="206.61" y="486.08" width="45.91" height="38.91"/>
    <rect id="alz_p2829_txt_w18_solidgold" class="cls-2" x="252.52" y="486.08" width="117.17" height="38.91"/>
    <rect id="alz_p2829_txt_w19_spaceship" class="cls-2" x="27.83" y="524.99" width="119.65" height="38.91"/>
    <rect id="alz_p2829_txt_w20_that" class="cls-2" x="147.48" y="524.99" width="54.26" height="38.91"/>
    <rect id="alz_p2829_txt_w21_the" class="cls-2" x="201.74" y="524.99" width="43.83" height="38.91"/>
    <rect id="alz_p2829_txt_w22_pirates" class="cls-2" x="245.57" y="524.99" width="83.48" height="38.91"/>
    <rect id="alz_p2829_txt_w23_took" class="cls-2" x="329.04" y="524.99" width="66.09" height="38.91"/>
    <rect id="alz_p2829_txt_w24_good" class="cls-2" x="466.78" y="25.36" width="74.04" height="38.91"/>
    <rect id="alz_p2829_txt_w25_thing" class="cls-2" x="538" y="25.36" width="66.98" height="38.91"/>
    <rect id="alz_p2829_txt_w26_you" class="cls-2" x="604.26" y="25.36" width="48.96" height="38.91"/>
    <rect id="alz_p2829_txt_w27_thought" class="cls-2" x="653.22" y="25.36" width="91.44" height="38.91"/>
    <rect id="alz_p2829_txt_w28_of" class="cls-2" x="742.26" y="25.36" width="30.65" height="38.91"/>
    <rect id="alz_p2829_txt_w29_that" class="cls-2" x="772.91" y="25.36" width="54.22" height="38.91"/>
    <rect id="alz_p2829_txt_w30_fly" class="cls-2" x="463" y="64.27" width="44.13" height="38.91"/>
    <rect id="alz_p2829_txt_w31_guy" class="cls-2" x="507.13" y="64.27" width="57.74" height="38.91"/>
    <rect id="alz_p2829_txt_w32_we" class="cls-2" x="564.87" y="64.27" width="45.61" height="38.91"/>
    <rect id="alz_p2829_txt_w33_need" class="cls-2" x="608.7" y="64.27" width="60.24" height="38.91"/>
    <rect id="alz_p2829_txt_w34_to" class="cls-2" x="669.74" y="64.27" width="30.09" height="38.91"/>
    <rect id="alz_p2829_txt_w35_make" class="cls-2" x="699.83" y="64.27" width="64.17" height="38.91"/>
    <rect id="alz_p2829_txt_w36_a" class="cls-2" x="764" y="64.27" width="24.48" height="38.91"/>
    <rect id="alz_p2829_txt_w37_movie" class="cls-2" x="463" y="103.18" width="75" height="38.91"/>
    <rect id="alz_p2829_txt_w38_sequel" class="cls-2" x="538" y="103.18" width="85" height="38.91"/>
    <rect id="alz_p2829_txt_w39_we" class="cls-2" x="623" y="103.18" width="42.91" height="38.91"/>
    <rect id="alz_p2829_txt_w40_must" class="cls-2" x="665" y="103.18" width="61.39" height="38.91"/>
    <rect id="alz_p2829_txt_w41_rescue" class="cls-2" x="726.39" y="103.18" width="78.61" height="38.91"/>
    <rect id="alz_p2829_txt_w42_buzz" class="cls-2" x="463" y="142.09" width="63.43" height="38.91"/>
    <rect id="alz_p2829_txt_w43_boy" class="cls-2" x="526.43" y="142.09" width="59.57" height="38.91"/>
    <rect id="alz_p2829_txt_w44_yezz" class="cls-2" x="641.43" y="173" width="138.57" height="56"/>
    <polygon id="alz_p2829_obj_buzz" class="cls-2" points="160.13 144.13 91.13 204.65 82.39 252.65 104.35 324 153.81 369.52 251.85 363.26 274.09 318.74 245.57 204.65 198.96 153.87 160.13 144.13"/>
    <polygon id="alz_p2829_obj_fly_guy1" class="cls-2" points="296.35 142.09 287.3 181 305.11 207.43 337.39 201 353.52 173 353.52 146.91 320.41 135.09 296.35 142.09"/>
    <path id="alz_p2829_obj_fly_guy2" class="cls-2" d="m665.91,270.04h-69.74l-39.96,27.83-20.21,71.65s5.91,75.13,10.09,76.52,54.87,64,54.87,64l103.05-4.51,31.3-104.7-.7-97.39-68.7-33.39Z"/>
    <polygon id="alz_p2829_obj_sign" class="cls-2" points="315.83 256.83 320.41 336.83 375.65 336.83 379.13 277.7 369.69 231.78 315.83 256.83"/>
    <polygon id="alz_p2829_obj_phone" class="cls-2" points="265.74 350.74 256.7 432.13 305.11 432.13 315.83 339.61 265.74 350.74"/>
    <rect id="alz_p2829_obj_page28" class="cls-2" x="201.04" y="592.83" width="27.13" height="24.35"/>	
    <rect id="alz_p2829_obj_page29" class="cls-2" x="633.74" y="592.83" width="25.83" height="25.83"/>
  </g>
</svg>