<?xml version="1.0" encoding="UTF-8"?>
<svg id="Layer_1" data-name="Layer 1" xmlns="http://www.w3.org/2000/svg" width="12in" height="9in" xmlns:xlink="http://www.w3.org/1999/xlink" viewBox="0 0 864 648">
  <defs>
    <style>
      .cls-1 {
        fill: none;
      }

      .cls-1, .cls-2 {
        isolation: isolate;
      }

      .cls-2 {
        fill: #f0f;
        opacity: .5;
      }
    </style>
  </defs>
  <g id="art">
    <image id="alz_p2425" class="cls-1" width="1800" height="1350" transform="scale(.48)" xlink:href="../JPGs/alz_p2425.jpg"/>
  </g>
  <g id="labels">
    <rect id="alz_p2425_txt_w01_when" class="cls-2" x="31.3" y="43.27" width="88.35" height="38.91"/>
    <rect id="alz_p2425_txt_w02_no" class="cls-2" x="118.3" y="43.27" width="40.3" height="38.91"/>
    <rect id="alz_p2425_txt_w03_one" class="cls-2" x="158.61" y="43.27" width="48.96" height="38.91"/>
    <rect id="alz_p2425_txt_w04_was" class="cls-2" x="207.57" y="43.27" width="51.91" height="38.91"/>
    <rect id="alz_p2425_txt_w05_looking" class="cls-2" x="259.48" y="43.27" width="93.91" height="38.91"/>
    <rect id="alz_p2425_txt_w06_space" class="cls-2" x="30.71" y="82.18" width="72.25" height="38.91"/>
    <rect id="alz_p2425_txt_w07_pirates" class="cls-2" x="102.96" y="82.18" width="86.96" height="38.91"/>
    <rect id="alz_p2425_txt_w08_came" class="cls-2" x="189.91" y="82.18" width="66.8" height="38.91"/>
    <rect id="alz_p2425_txt_w09_and" class="cls-2" x="256.71" y="82.18" width="49.37" height="38.91"/>
    <rect id="alz_p2425_txt_w10_stole" class="cls-2" x="306.09" y="82.18" width="68.87" height="38.91"/>
    <rect id="alz_p2425_txt_w11_the" class="cls-2" x="30.71" y="121.09" width="47.9" height="38.91"/>
    <rect id="alz_p2425_txt_w12_solidgold" class="cls-2" x="75.48" y="121.09" width="121.95" height="38.91"/>
    <rect id="alz_p2425_txt_w13_spaceship" class="cls-2" x="197.43" y="121.09" width="118.57" height="38.91"/>
    <rect id="alz_p2425_txt_w14_arrgh" class="cls-2" x="39.43" y="176.64" width="100.57" height="44.36"/>
    <rect id="alz_p2425_txt_w15_they" class="cls-2" x="466" y="33.18" width="75" height="38.91"/>
    <rect id="alz_p2425_txt_w16_took" class="cls-2" x="541" y="33.18" width="61.91" height="38.91"/>
    <rect id="alz_p2425_txt_w17_it" class="cls-2" x="602.91" y="33.18" width="24.48" height="38.91"/>
    <rect id="alz_p2425_txt_w18_back" class="cls-2" x="623.43" y="33.18" width="60.57" height="38.91"/>
    <rect id="alz_p2425_txt_w19_to" class="cls-2" x="684" y="33.18" width="33.17" height="38.91"/>
    <rect id="alz_p2425_txt_w20_their" class="cls-2" x="715.43" y="33.18" width="66.57" height="38.91"/>
    <rect id="alz_p2425_txt_w21_creepy" class="cls-2" x="466" y="72.09" width="82" height="38.91"/>
    <rect id="alz_p2425_txt_w22_pirate" class="cls-2" x="548" y="72.09" width="75.43" height="38.91"/>
    <rect id="alz_p2425_txt_w23_planet" class="cls-2" x="623.43" y="72.09" width="89.57" height="38.91"/>
    <rect id="alz_p2425_txt_w24_arrgh" class="cls-2" x="715.43" y="196.09" width="84.57" height="38.91"/>
    <polygon id="alz_p2425_obj_pship1" class="cls-2" points="330.43 215.55 228.87 198.82 132.87 251.96 109.22 336.13 158.61 395.96 278.26 352.83 336 272.83 345.04 229 330.43 215.55"/>
    <polygon id="alz_p2425_obj_spaceship1" class="cls-2" points="151.65 478.04 83.48 457.87 46.61 478.04 46.61 515.61 89.71 541.35 151.65 546.91 178.09 507.96 151.65 478.04"/>
    <polygon id="alz_p2425_obj_saturn" class="cls-2" points="233.52 471.78 207.57 485.7 214.26 515.61 251.13 518.39 267.13 485.7 233.52 471.78"/>
    <polygon id="alz_p2425_obj_spaceship2" class="cls-2" points="503.5 153.17 475.13 215.55 503.5 238.74 541 215.55 544 171.96 524.52 146.91 503.5 153.17"/>
    <path id="alz_p2425_obj_pship2" class="cls-2" d="m615.15,196.09c-1.58,3-29.43,9.26-29.43,9.26l-20.85,3.2-6.96,46.19s61.47,58.43,65.52,60.52,60.57-17.87,60.57-17.87l8.17-62.39-45.91-42.17-31.11,3.26Z"/>
    <polygon id="alz_p2425_obj_pirate_planet" class="cls-2" points="731.83 384.13 676.17 395.96 635.83 446.74 636.52 495.43 653.71 539.96 695.65 563.61 757.71 558.74 800 526.74 809.04 477.35 800 432.13 764.52 400.13 731.83 384.13"/>
    <rect id="alz_p2425_obj_page25" class="cls-2" x="631.65" y="592.83" width="31.3" height="25.74"/>
  </g>
</svg>